<?xml version="1.0" encoding="UTF-8"?>
<!DOCTYPE svg PUBLIC "-//W3C//DTD SVG 1.1//EN" "http://www.w3.org/Graphics/SVG/1.1/DTD/svg11.dtd">
<svg version="1.1" xmlns="http://www.w3.org/2000/svg" xmlns:xlink="http://www.w3.org/1999/xlink" x="0" y="0" width="516.117" height="486.239" viewBox="0, 0, 516.117, 486.239">
  <g id="Ebene_1">
    <path d="M347.526,115.575 C347.289,111.597 346.969,105.677 346.713,98.489 C345.971,77.723 346.753,74.25 346.035,64.722 C344.847,48.954 344.143,38.26 337.085,27.295 C335.028,24.101 324.701,7.823 307.386,5.733 C299.995,4.841 293.325,6.773 289.893,7.767 C281.06,10.326 274.969,14.535 271.993,16.718 C252.565,30.962 227.159,60.516 223.174,65.129 C210.333,79.999 196.693,95.662 176.39,112.727 C156.829,129.169 145.079,135.149 135.301,138.764 C130.818,140.422 105.588,149.749 95.026,144.866 C94.189,144.479 90.304,142.551 88.517,144.053 C87.343,145.039 87.518,147.135 87.703,149.341 C87.873,151.361 88.111,154.209 89.737,156.664 C90.393,157.653 92.262,160.071 101.4,162.36 C105.647,163.423 109.196,164.312 114.96,164.393 C123.927,164.521 132.202,162.485 141.811,159.105 C157.035,153.749 167.793,146.733 171.915,144.053 C177.857,140.189 195.247,128.465 219.107,103.37 C239.671,81.742 252.059,65.943 252.059,65.943 C255.113,62.047 264.942,49.373 280.943,37.466 C288.305,31.987 294.169,28.758 300.878,29.736 C308.869,30.9 313.922,37.429 315.523,39.499 C316.64,40.943 320.831,46.633 322.439,61.875 C323.737,74.181 321.926,79.707 320.812,104.591 C320.607,109.16 320.478,112.874 320.405,115.168 C329.445,115.304 338.486,115.439 347.526,115.575" fill="#CEA988" id="path17054"/>
    <path d="M347.526,115.575 C347.289,111.597 346.969,105.677 346.713,98.489 C345.971,77.723 346.753,74.25 346.035,64.722 C344.847,48.954 344.143,38.26 337.085,27.295 C335.028,24.101 324.701,7.823 307.386,5.733 C299.995,4.841 293.325,6.773 289.893,7.767 C281.06,10.326 274.969,14.535 271.993,16.718 C252.565,30.962 227.159,60.516 223.174,65.129 C210.333,79.999 196.693,95.662 176.39,112.727 C156.829,129.169 145.079,135.149 135.301,138.764 C130.818,140.422 105.588,149.749 95.026,144.866 C94.189,144.479 90.304,142.551 88.517,144.053 C87.343,145.039 87.518,147.135 87.703,149.341 C87.873,151.361 88.111,154.209 89.737,156.664 C90.393,157.653 92.262,160.071 101.4,162.36 C105.647,163.423 109.196,164.312 114.96,164.393 C123.927,164.521 132.202,162.485 141.811,159.105 C157.035,153.749 167.793,146.733 171.915,144.053 C177.857,140.189 195.247,128.465 219.107,103.37 C239.671,81.742 252.059,65.943 252.059,65.943 C255.113,62.047 264.942,49.373 280.943,37.466 C288.305,31.987 294.169,28.758 300.878,29.736 C308.869,30.9 313.922,37.429 315.523,39.499 C316.64,40.943 320.831,46.633 322.439,61.875 C323.737,74.181 321.926,79.707 320.812,104.591 C320.607,109.16 320.478,112.874 320.405,115.168 C329.445,115.304 338.486,115.439 347.526,115.575 z" fill-opacity="0" stroke="#2B2B2A" stroke-width="11" id="path17056"/>
    <path d="M72.157,73.943 C69.131,85.409 66.104,96.875 63.078,108.34 C52.505,104.274 41.932,100.207 31.359,96.14 L42.887,132.541 L4.723,144.182 L34.387,168.25 L16.318,193.424 L47.49,193.609 L47.171,232.155 L79.578,208.2 L101.536,239.844 L111.749,207.536 L141.299,217.695 L131.09,181.769 L167.131,169.154 L138.119,148 L156.364,120.944 L124.71,121.585 L125.499,81.946 C115.162,88.751 104.825,95.555 94.488,102.359 C87.044,92.887 79.6,83.415 72.157,73.943" fill="#FFED00" id="path17052"/>
    <path d="M390.441,145.181 C392.22,141.154 393.226,136.717 393.226,132.051 C393.226,114.039 378.489,99.302 360.477,99.302 L305.962,99.302 C287.951,99.302 273.213,114.039 273.213,132.051 C273.213,137.437 274.553,142.516 276.882,147.01 C212.256,171.11 166.22,233.369 166.22,306.399 C166.22,400.329 242.361,476.476 336.287,476.476 C430.212,476.476 506.354,400.329 506.354,306.399 C506.354,231.411 457.804,167.805 390.441,145.181" fill="#444444" id="path17058"/>
    <path d="M390.441,145.181 C392.22,141.154 393.226,136.717 393.226,132.051 C393.226,114.039 378.489,99.302 360.477,99.302 L305.962,99.302 C287.951,99.302 273.213,114.039 273.213,132.051 C273.213,137.437 274.553,142.516 276.882,147.01 C212.256,171.11 166.22,233.369 166.22,306.399 C166.22,400.329 242.361,476.476 336.287,476.476 C430.212,476.476 506.354,400.329 506.354,306.399 C506.354,231.411 457.804,167.805 390.441,145.181 z" fill-opacity="0" stroke="#2B2B2A" stroke-width="19.527" id="path17060"/>
    <path d="M85.454,111.976 C83.08,117.874 80.704,123.771 78.329,129.669 C72.797,126.842 67.266,124.015 61.735,121.188 L65.761,141.246 L44.144,145.019 L58.869,159.672 L47.401,171.9 L64.449,173.965 L61.855,194.415 L81.095,183.74 L91.128,201.931 L98.743,185.418 L114.278,192.679 L110.944,172.956 L131.46,168.532 L116.91,155.467 L128.592,142.252 L111.227,140.594 L114.145,119.593 C108.063,122.554 101.978,125.514 95.895,128.476 C92.415,122.976 88.935,117.476 85.454,111.976" fill="#EF7F1C" id="path17062"/>
    <path d="M89.069,72.832 C83.944,83.525 78.819,94.219 73.694,104.913 C64.072,98.933 54.45,92.954 44.829,86.974 L49.318,124.893 L9.648,129.161 L34.265,158.371 L11.79,179.705 L42.373,185.738 L34.822,223.54 L71.151,206.095 L86.777,241.299 L102.875,211.483 L129.991,227.009 L126.71,189.805 L164.478,184.182 L139.955,157.957 L162.953,134.807 L131.742,129.494 L139.96,90.708 C128.529,95.451 117.099,100.193 105.668,104.936 C100.135,94.234 94.602,83.533 89.069,72.832 z" fill-opacity="0" stroke="#2B2B2A" stroke-width="9.764" id="path17064"/>
    <path d="M296.673,172.124 C285.663,175.805 278.774,179.446 278.774,179.446 C273.138,182.425 253.74,192.86 238.091,210.094 C238.091,210.094 233.011,215.688 228.87,224.739 C225.378,232.371 226.122,234.741 226.7,235.859 C228.492,239.324 233.677,240.556 237.548,240.199 C244.771,239.531 248.248,233.27 255.177,225.553 C262.246,217.682 269.292,212.802 283.384,203.042 C289.946,198.497 298.853,193.033 310.504,187.855 L310.505,187.854 C315.133,186.028 321.049,184.061 321.896,179.718 C322.499,176.623 320.337,173.299 318.099,171.582 C315.037,169.231 311.393,169.547 306.708,169.954 C302.126,170.352 298.703,171.445 296.673,172.124" fill="#FEFEFE" id="path17066"/>
    <path d="M222.583,275.936 C218.269,285.411 209.632,290.75 203.293,287.864 C196.955,284.977 195.313,274.957 199.628,265.483 C203.942,256.009 212.579,250.668 218.917,253.555 C225.256,256.442 226.897,266.462 222.583,275.936" fill="#FEFEFE" id="path17068"/>
  </g>
</svg>
